<svg xmlns="http://www.w3.org/2000/svg" viewBox="0 0 24 24"><defs><style>.cls-1{fill:#808284;}</style></defs><title>calendar_icon</title><g id="annotation"><path class="cls-1" d="M5.78,9.17a.92.92,0,1,0,.91.91A.92.92,0,0,0,5.78,9.17Z"/><path class="cls-1" d="M5.78,12.31a.92.92,0,1,0,.91.91A.92.92,0,0,0,5.78,12.31Z"/><path class="cls-1" d="M5.78,15.45a.92.92,0,1,0,.91.91A.92.92,0,0,0,5.78,15.45Z"/><path class="cls-1" d="M8.89,9.17a.92.92,0,1,0,.92.91A.92.92,0,0,0,8.89,9.17Z"/><path class="cls-1" d="M8.89,12.31a.92.92,0,1,0,.92.91A.92.92,0,0,0,8.89,12.31Z"/><path class="cls-1" d="M8.89,15.45a.92.92,0,1,0,.92.91A.92.92,0,0,0,8.89,15.45Z"/><path class="cls-1" d="M12,9.17a.92.92,0,1,0,.92.91A.92.92,0,0,0,12,9.17Z"/><path class="cls-1" d="M12,12.31a.92.92,0,1,0,.92.91A.92.92,0,0,0,12,12.31Z"/><path class="cls-1" d="M12,15.45a.92.92,0,1,0,.92.91A.92.92,0,0,0,12,15.45Z"/><path class="cls-1" d="M15.11,9.17a.92.92,0,1,0,.92.91A.92.92,0,0,0,15.11,9.17Z"/><path class="cls-1" d="M15.11,12.31a.92.92,0,1,0,.92.91A.92.92,0,0,0,15.11,12.31Z"/><path class="cls-1" d="M15.11,15.45a.92.92,0,1,0,.92.91A.92.92,0,0,0,15.11,15.45Z"/><path class="cls-1" d="M18.22,9.17a.92.92,0,1,0,.92.91A.92.92,0,0,0,18.22,9.17Z"/><path class="cls-1" d="M18.22,12.31a.92.92,0,1,0,.92.91A.92.92,0,0,0,18.22,12.31Z"/><path class="cls-1" d="M18.22,15.45a.92.92,0,1,0,.92.91A.92.92,0,0,0,18.22,15.45Z"/><path class="cls-1" d="M21.88,3.92H17.32v1.8h4.56a.31.31,0,0,1,.31.3v14.4a.3.3,0,0,1-.31.3H2.12a.3.3,0,0,1-.31-.3V3.92A1.8,1.8,0,0,0,0,5.72H0v14.7a2.12,2.12,0,0,0,2.12,2.11H21.88A2.12,2.12,0,0,0,24,20.42V6A2.11,2.11,0,0,0,21.88,3.92Z"/><path class="cls-1" d="M6.68,5.49h0v-4a1.8,1.8,0,0,0-1.8,1.81h0v.64h0v4a1.81,1.81,0,0,0,1.8-1.81h0Z"/><path class="cls-1" d="M19.12,5.49h0v-4a1.81,1.81,0,0,0-1.8,1.81h0v.64h0v4a1.8,1.8,0,0,0,1.8-1.81h0Z"/><rect class="cls-1" x="4.88" y="3.92" width="11.53" height="1.81"/><rect class="cls-1" x="1.75" y="3.92" width="2.22" height="1.81"/></g></svg>