<svg id="art" xmlns="http://www.w3.org/2000/svg" viewBox="0 0 48 48"><defs><style>.cls-1{fill:#fff;}</style></defs><title>demographics_icon_inactive</title><path class="cls-1" d="M42.68,35.69h-2.8a4.23,4.23,0,0,0-4.22-4.22,4.14,4.14,0,0,0-2.6.89,9.76,9.76,0,0,1,.58,3.33H30.85a6.85,6.85,0,0,0-13.7,0H14.36a9.76,9.76,0,0,1,.58-3.33,4.14,4.14,0,0,0-2.6-.89,4.23,4.23,0,0,0-4.22,4.22H5.32a7,7,0,0,1,7-7,7.19,7.19,0,0,1,4,1.21,9.62,9.62,0,0,1,15.32,0,7.19,7.19,0,0,1,4-1.21A7,7,0,0,1,42.68,35.69ZM7.61,22.93a4.74,4.74,0,1,1,4.73,4.74A4.75,4.75,0,0,1,7.61,22.93Zm2.79,0a2,2,0,0,0,1.94,1.94,1.94,1.94,0,1,0-1.94-1.94Zm7.34-4.34A6.26,6.26,0,1,1,24,24.83,6.27,6.27,0,0,1,17.74,18.59Zm2.79,0a3.47,3.47,0,0,0,6.94,0,3.47,3.47,0,1,0-6.94,0Zm10.39,4.34a4.74,4.74,0,1,1,4.74,4.74A4.73,4.73,0,0,1,30.92,22.93Zm2.8,0a1.94,1.94,0,0,0,1.94,1.94,2,2,0,0,0,1.94-1.94A2,2,0,0,0,35.66,21,1.92,1.92,0,0,0,33.72,22.93Z"/></svg>