<svg xmlns="http://www.w3.org/2000/svg" viewBox="0 0 24 24"><defs><style>.cls-1{fill:#da291c;}</style></defs><title>error_icon</title><g id="annotation"><path class="cls-1" d="M13.08,12.08h0V6.15a2.17,2.17,0,0,0-2.17,2.17v5.87A2.17,2.17,0,0,0,13.08,12.08Z"/><path class="cls-1" d="M11,17.46a1.44,1.44,0,0,0,.44.28,1.32,1.32,0,0,0,.53.11,1.41,1.41,0,0,0,.54-.11,1.51,1.51,0,0,0,.45-.29,1.28,1.28,0,0,0,.3-.43,1.36,1.36,0,0,0,.11-.53,1.18,1.18,0,0,0-.12-.53,1.39,1.39,0,0,0-.3-.43,1.57,1.57,0,0,0-.44-.28,1.4,1.4,0,0,0-.54-.1,1.37,1.37,0,0,0-1,.39A1.34,1.34,0,0,0,10.72,17,1.28,1.28,0,0,0,11,17.46Z"/><path class="cls-1" d="M12,0A12,12,0,1,0,24,12,12,12,0,0,0,12,0Zm0,21.83A9.83,9.83,0,1,1,21.83,12,9.84,9.84,0,0,1,12,21.83Z"/></g></svg>