<svg id="art" xmlns="http://www.w3.org/2000/svg" viewBox="0 0 48 48"><defs><style>.cls-1{fill:#808284;}</style></defs><title>hidden_item_icon_list_indicator</title><path class="cls-1" d="M24,26.32A2.32,2.32,0,1,1,26.32,24,2.32,2.32,0,0,1,24,26.32Z"/><path class="cls-1" d="M13,36a1,1,0,0,1-.72-.3,1,1,0,0,1,0-1.45l22-21.95a1,1,0,0,1,1.45,1.45l-22,22A1,1,0,0,1,13,36Z"/><path class="cls-1" d="M18.83,26.4a18.75,18.75,0,0,1-2-1A19,19,0,0,1,14.64,24c1.63-1.22,5.23-3.51,9.36-3.51.24,0,.47,0,.7,0l1.83-1.83A13.81,13.81,0,0,0,24,18.45a16.92,16.92,0,0,0-8.27,2.4,20.35,20.35,0,0,0-3.4,2.4A1,1,0,0,0,12,24a1,1,0,0,0,.33.75,20.35,20.35,0,0,0,3.4,2.4c.52.29,1,.55,1.56.79Z"/><path class="cls-1" d="M35.67,23.25a20.35,20.35,0,0,0-3.4-2.4c-.51-.29-1-.54-1.54-.78l-1.54,1.54a19.31,19.31,0,0,1,2,1A19,19,0,0,1,33.36,24a19,19,0,0,1-2.14,1.4A15.15,15.15,0,0,1,24,27.51c-.23,0-.45,0-.68,0L21.49,29.3a13.58,13.58,0,0,0,2.51.24,16.9,16.9,0,0,0,8.27-2.39,20.35,20.35,0,0,0,3.4-2.4A1,1,0,0,0,36,24,1,1,0,0,0,35.67,23.25Z"/></svg>