<svg xmlns="http://www.w3.org/2000/svg" viewBox="0 0 24 24"><defs><style>.cls-1{fill:#00a0b7;}</style></defs><title>info_icon</title><g id="annotation"><path class="cls-1" d="M12.48,14.22a1.27,1.27,0,0,0-.47-.09,1.28,1.28,0,0,0-.48.09,1.16,1.16,0,0,0-.39.26,1.1,1.1,0,0,0-.27.38,1.22,1.22,0,0,0-.09.46,1,1,0,0,0,.1.47,1.26,1.26,0,0,0,.27.38,1.14,1.14,0,0,0,.39.25,1.19,1.19,0,0,0,.47.09,1.18,1.18,0,0,0,.86-.35,1.15,1.15,0,0,0,.35-.85,1.22,1.22,0,0,0-.09-.46,1,1,0,0,0-.27-.38A1.39,1.39,0,0,0,12.48,14.22Z"/><path class="cls-1" d="M13.57,12c.2-.15.38-.3.54-.44a2.27,2.27,0,0,0,.41-.47,1.76,1.76,0,0,0,.27-.55,2.39,2.39,0,0,0,.1-.69,2.46,2.46,0,0,0-.25-1.08A2.17,2.17,0,0,0,14,8.05a2.72,2.72,0,0,0-.89-.43,4.4,4.4,0,0,0-1-.13A3.67,3.67,0,0,0,11,7.65a2.83,2.83,0,0,0-.91.48,2.61,2.61,0,0,0-.66.81,3,3,0,0,0-.32,1.12l0,.12,2.05.22v-.13a1.23,1.23,0,0,1,.23-.67.84.84,0,0,1,1.14-.09.66.66,0,0,1,.18.49.56.56,0,0,1-.11.37,2,2,0,0,1-.31.34l-.37.35a5,5,0,0,0-.4.38,2.7,2.7,0,0,0-.29.4,1.7,1.7,0,0,0-.18.46,2.26,2.26,0,0,0-.06.55v.55h2V13a1.09,1.09,0,0,1,0-.28,1.43,1.43,0,0,1,.08-.22,1,1,0,0,1,.17-.2Z"/><path class="cls-1" d="M12,0A12,12,0,1,0,24,12,12,12,0,0,0,12,0Zm0,21.83A9.83,9.83,0,1,1,21.83,12,9.84,9.84,0,0,1,12,21.83Z"/></g></svg>