<svg id="art" xmlns="http://www.w3.org/2000/svg" viewBox="0 0 48 48"><defs><style>.cls-1{fill:#fff;}</style></defs><title>interests_icon_inactive</title><path class="cls-1" d="M36.78,10.13a4.58,4.58,0,0,1,4.54,4.54V28a4.54,4.54,0,0,1-4.54,4.54H25.38v2.52h6.2a2.81,2.81,0,0,1,2.8,2.8H13.7a2.78,2.78,0,0,1,2.76-2.8h6.12V32.55H11.18A4.51,4.51,0,0,1,6.68,28V14.67a4.54,4.54,0,0,1,4.5-4.54Zm1.75,4.54a1.74,1.74,0,0,0-1.75-1.74H11.18a1.73,1.73,0,0,0-1.71,1.74V28a1.74,1.74,0,0,0,1.71,1.75h25.6A1.75,1.75,0,0,0,38.53,28Z"/></svg>