<svg id="art" xmlns="http://www.w3.org/2000/svg" viewBox="0 0 72 144"><defs><style>.cls-1{fill:#da291c;}</style></defs><title>men_icon</title><path class="cls-1" d="M49.79,29.85A17.39,17.39,0,0,1,67.1,47.16V89.3a5.49,5.49,0,0,1-5.51,5.51H53.77V144h-11V94.81H29.26V144h-11V94.81H10.41A5.49,5.49,0,0,1,4.9,89.3V47.16A17.39,17.39,0,0,1,22.21,29.85Zm6.28,17.31a6.31,6.31,0,0,0-6.28-6.28H22.21a6.31,6.31,0,0,0-6.28,6.28V83.78H56.07ZM25,13.3A11,11,0,0,1,47,12.38,11.09,11.09,0,0,1,36.46,23.87,11.2,11.2,0,0,1,25,13.3Z"/></svg>