<svg id="art" xmlns="http://www.w3.org/2000/svg" viewBox="0 0 48 48"><defs><style>.cls-1{fill:#ffbf3f;}</style></defs><title>modal_warning_icon</title><path class="cls-1" d="M43.32,44.66H4.68A4.59,4.59,0,0,1,.5,42.54a4.56,4.56,0,0,1,.33-4.68L20,5.87a4.73,4.73,0,0,1,4-2.53,4.73,4.73,0,0,1,4,2.53l19.19,32a4.24,4.24,0,0,1-3.85,6.8ZM4,40.58a1.8,1.8,0,0,0,.72.12H43.32a1.8,1.8,0,0,0,.72-.12,1.74,1.74,0,0,0-.26-.69l-19.2-32c-.28-.48-.53-.6-.58-.61s-.3.13-.58.61l-19.2,32A1.74,1.74,0,0,0,4,40.58Z"/><path class="cls-1" d="M26,19.69v-4a4,4,0,0,0-4,4h0v6.86h0v3.84a4,4,0,0,0,4-3.84h0v-.11h0V19.69Z"/><path class="cls-1" d="M22.21,36.37a2.87,2.87,0,0,0,.8.51,2.45,2.45,0,0,0,1,.2,2.53,2.53,0,0,0,1-.2,2.82,2.82,0,0,0,.82-.53,2.37,2.37,0,0,0,.54-.79,2.39,2.39,0,0,0,.2-1,2.25,2.25,0,0,0-.21-1,2.67,2.67,0,0,0-.56-.78,2.51,2.51,0,0,0-.8-.52,2.61,2.61,0,0,0-1-.18,2.44,2.44,0,0,0-1.79.72,2.34,2.34,0,0,0-.73,1.76,2.37,2.37,0,0,0,.19.95,2.44,2.44,0,0,0,.55.79"/></svg>