<svg id="art" xmlns="http://www.w3.org/2000/svg" viewBox="0 0 102 48"><defs><style>.cls-1{fill:#fff;}</style></defs><title>RED_Logo</title><polygon class="cls-1" points="45.37 4.49 88.61 4.49 88.61 45.66 2.34 45.66 2.34 45.66 2.34 4.49 2.36 4.49 6.7 4.49 6.7 2.14 0 2.14 0 48 90.95 48 90.95 2.14 45.37 2.14 45.37 4.49"/><rect class="cls-1" x="11.1" width="5.61" height="5.87"/><rect class="cls-1" x="23.23" width="5.61" height="5.87"/><rect class="cls-1" x="35.36" width="5.61" height="5.87"/><path class="cls-1" d="M11.11,36.81h5.43V28.38h1.55l5.26,8.43h6.46l-6.3-9.14a7,7,0,0,0,4.43-6.49c0-5.56-4.36-7.24-8.76-7.24H11.11ZM16.5,18.4h2.3c1.64,0,3.68.74,3.68,2.87,0,2.65-2.23,3.1-4,3.1h-2Z"/><path class="cls-1" d="M32.9,37a1.47,1.47,0,0,0,1.45-1.49A1.46,1.46,0,0,0,32.9,34.1a1.47,1.47,0,0,0,0,2.94Z"/><polygon class="cls-1" points="51.04 18.63 51.68 13.94 36.95 13.94 36.95 36.81 51.62 36.81 52.26 32.09 42.28 32.09 42.28 27.35 50.16 27.35 50.81 22.92 42.28 22.92 42.28 18.63 51.04 18.63"/><path class="cls-1" d="M57.09,35.55a1.46,1.46,0,0,0-1.45-1.45,1.47,1.47,0,0,0,0,2.94A1.48,1.48,0,0,0,57.09,35.55Z"/><path class="cls-1" d="M78.76,35.55A1.43,1.43,0,0,0,80.18,37a1.48,1.48,0,0,0,1.45-1.49,1.46,1.46,0,0,0-1.45-1.45A1.44,1.44,0,0,0,78.76,35.55Z"/><path class="cls-1" d="M68,13.94H59.68V36.81h8.53c6.3,0,12.82-3.46,12.82-11.5C81,16.65,74.44,13.94,68,13.94ZM67.69,32H65.08V18.66h2.74c3.81,0,7.46,1.52,7.46,6.65S71.63,32,67.69,32Z"/><polygon class="cls-1" points="93.36 44.5 94.59 44.5 94.59 48 95.16 48 95.16 44.5 96.33 44.5 96.41 44.01 93.44 44.01 93.36 44.5"/><polygon class="cls-1" points="100.28 44.01 99.02 47.14 97.73 44.01 96.9 44.01 96.9 48 97.45 48 97.44 44.68 98.8 48 99.19 48 100.57 44.68 100.57 48 101.13 48 101.13 44.01 100.28 44.01"/></svg>