<svg id="art" xmlns="http://www.w3.org/2000/svg" viewBox="0 0 24 24"><defs><style>.cls-1{fill:#414042;}</style></defs><title>search_icon_active</title><rect class="cls-1" x="-1.59" y="18.57" width="12.89" height="0.97" transform="translate(-12.15 9.19) rotate(-45.58)"/><path class="cls-1" d="M15.09,17.09A8.74,8.74,0,0,1,6.18,8.55,8.74,8.74,0,0,1,15.09,0,8.74,8.74,0,0,1,24,8.55,8.74,8.74,0,0,1,15.09,17.09ZM15.09,1A7.77,7.77,0,0,0,7.15,8.55a7.77,7.77,0,0,0,7.94,7.57A7.77,7.77,0,0,0,23,8.55,7.77,7.77,0,0,0,15.09,1Z"/></svg>