<svg xmlns="http://www.w3.org/2000/svg" viewBox="0 0 24 24"><defs><style>.cls-1{fill:#ffbf3f;}</style></defs><title>warning_tip_icon</title><g id="annotation"><path class="cls-1" d="M21.66,22.33H2.34A2.29,2.29,0,0,1,.25,21.27a2.31,2.31,0,0,1,.16-2.34l9.6-16a2.35,2.35,0,0,1,2-1.27,2.35,2.35,0,0,1,2,1.27l9.6,16a2.12,2.12,0,0,1-1.93,3.4ZM2,20.29a.92.92,0,0,0,.36.06H21.66a.92.92,0,0,0,.36-.06.76.76,0,0,0-.13-.34L12.29,4c-.14-.24-.27-.3-.29-.3s-.15.06-.29.3L2.11,20A.76.76,0,0,0,2,20.29Z"/><path class="cls-1" d="M13,9.84v-2a2,2,0,0,0-2,2h0v3.44h0V15.2a2,2,0,0,0,2-1.92h0v-.06h0V9.84Z"/><path class="cls-1" d="M11.11,18.18a1.2,1.2,0,0,0,.4.26,1.12,1.12,0,0,0,.48.1,1.31,1.31,0,0,0,.9-.36,1.38,1.38,0,0,0,.28-.4,1.29,1.29,0,0,0,.1-.48,1.17,1.17,0,0,0-.11-.49,1.29,1.29,0,0,0-.28-.38,1.15,1.15,0,0,0-.4-.26,1.33,1.33,0,0,0-.49-.09,1.25,1.25,0,0,0-.89.35,1.22,1.22,0,0,0-.37.88,1.29,1.29,0,0,0,.1.48,1.08,1.08,0,0,0,.28.39"/></g></svg>