<svg id="art" xmlns="http://www.w3.org/2000/svg" viewBox="0 0 72 144"><defs><style>.cls-1{fill:#414042;}</style></defs><title>women_icon</title><path class="cls-1" d="M71.89,100.33a5.41,5.41,0,0,1-1.08,4.6,5.35,5.35,0,0,1-4.29,2.14H53.81V144h-11V107.07H29.14V144h-11V107.07H5.54a5.15,5.15,0,0,1-4.29-2.14,5,5,0,0,1-1.07-4.6L12.44,45.94c2.45-10.42,9.34-16.09,19.61-16.09h8c10.42,0,17.16,5.51,19.61,16.09ZM48.75,48.39c-1.38-6.29-4.29-7.51-8.73-7.51h-8c-4.29,0-7.51,1.38-8.89,7.51L12.44,96H59.63ZM25,13.14A10.85,10.85,0,0,1,35.57,1.81,11.05,11.05,0,0,1,47.06,12.23,11.1,11.1,0,0,1,36.49,23.72,10.91,10.91,0,0,1,25,13.14Z"/></svg>